# xmcd CD database file
#
# Track frame offsets:
#	150
#	10480
#	34817
#	55755
#	81857
#	102780
#	129475
#	150870
#	174442
#	196915
#	219457
#
# Disc length: 3248 seconds
#
# Revision: 0
# Processed by: cddbd v1.4b41PL2 Copyright (c) Steve Scherf et al.
# Submitted via: CD2WAV32(EN) R3.17
#
DISCID=830cae0b
DTITLE=The Dells - Reminiscing
DYEAR=1900
DGENRE=
TTITLE0=Dells Welcome - The Love We Had
TTITLE1=Say That You'll Stay
TTITLE2=You Were My 911
TTITLE3=Reminiscing
TTITLE4=Here 4 U
TTITLE5=Corner Cafe
TTITLE6=The Whole Truth
TTITLE7=Where Do We Go from Here
TTITLE8=Baby Come Back
TTITLE9=I Need You
TTITLE10=Say That You'll Stay (instrumental
EXTD=
EXTT0=
EXTT1=
EXTT2=
EXTT3=
EXTT4=
EXTT5=
EXTT6=
EXTT7=
EXTT8=
EXTT9=
EXTT10=
PLAYORDER=
